<mxfile host="65bd71144e">
    <diagram id="qsWdjLXhYfynifRHrDlj" name="Page-1">
        <mxGraphModel dx="517" dy="1678" grid="1" gridSize="10" guides="1" tooltips="1" connect="1" arrows="1" fold="1" page="1" pageScale="1" pageWidth="1169" pageHeight="827" math="0" shadow="0">
            <root>
                <mxCell id="0"/>
                <mxCell id="1" parent="0"/>
                <mxCell id="42" value="" style="swimlane;startSize=0;fillColor=#d5e8d4;strokeColor=#82b366;sketch=1;" parent="1" vertex="1">
                    <mxGeometry x="320" y="-710" width="260" height="640" as="geometry">
                        <mxRectangle x="660" y="-710" width="50" height="40" as="alternateBounds"/>
                    </mxGeometry>
                </mxCell>
                <mxCell id="84" value="&lt;br&gt;«schema»&lt;br&gt;&lt;b&gt;Temp Press Humid Sensor&lt;/b&gt;" style="html=1;dropTarget=0;verticalAlign=top;fillColor=#dae8fc;strokeColor=#6c8ebf;sketch=0;" parent="42" vertex="1">
                    <mxGeometry x="20" y="20" width="220" height="600" as="geometry"/>
                </mxCell>
                <mxCell id="85" value="" style="shape=module;jettyWidth=8;jettyHeight=4;sketch=0;" parent="84" vertex="1">
                    <mxGeometry x="1" width="20" height="20" relative="1" as="geometry">
                        <mxPoint x="-27" y="7" as="offset"/>
                    </mxGeometry>
                </mxCell>
                <mxCell id="87" value="«parameter»&lt;br&gt;&lt;b&gt;last_reading&lt;/b&gt;" style="html=1;dropTarget=0;verticalAlign=top;sketch=0;" parent="42" vertex="1">
                    <mxGeometry x="30" y="80" width="160" height="50" as="geometry"/>
                </mxCell>
                <mxCell id="89" value="«group»&lt;br&gt;&lt;b&gt;oversample&lt;/b&gt;" style="html=1;dropTarget=0;verticalAlign=top;sketch=0;fillColor=#dae8fc;strokeColor=#6c8ebf;" parent="42" vertex="1">
                    <mxGeometry x="30" y="140" width="160" height="50" as="geometry"/>
                </mxCell>
                <mxCell id="90" value="«parameter»&lt;br&gt;&lt;b&gt;temp&lt;/b&gt;" style="html=1;dropTarget=0;verticalAlign=top;sketch=0;" parent="42" vertex="1">
                    <mxGeometry x="70" y="200" width="160" height="50" as="geometry"/>
                </mxCell>
                <mxCell id="91" value="«parameter»&lt;br&gt;&lt;b&gt;press&lt;/b&gt;" style="html=1;dropTarget=0;verticalAlign=top;sketch=0;" parent="42" vertex="1">
                    <mxGeometry x="70" y="260" width="160" height="50" as="geometry"/>
                </mxCell>
                <mxCell id="93" value="" style="endArrow=none;html=1;entryX=0.113;entryY=0.98;entryDx=0;entryDy=0;entryPerimeter=0;edgeStyle=orthogonalEdgeStyle;rounded=0;exitX=0;exitY=0.5;exitDx=0;exitDy=0;" parent="42" source="91" edge="1">
                    <mxGeometry width="50" height="50" relative="1" as="geometry">
                        <mxPoint x="70" y="226" as="sourcePoint"/>
                        <mxPoint x="48.07999999999993" y="190" as="targetPoint"/>
                        <Array as="points">
                            <mxPoint x="48" y="285"/>
                        </Array>
                    </mxGeometry>
                </mxCell>
                <mxCell id="94" value="" style="endArrow=none;html=1;entryX=0;entryY=0.5;entryDx=0;entryDy=0;edgeStyle=orthogonalEdgeStyle;rounded=0;" parent="42" target="90" edge="1">
                    <mxGeometry width="50" height="50" relative="1" as="geometry">
                        <mxPoint x="48" y="225" as="sourcePoint"/>
                        <mxPoint x="28.079999999999927" y="149" as="targetPoint"/>
                        <Array as="points">
                            <mxPoint x="60" y="225"/>
                            <mxPoint x="60" y="225"/>
                        </Array>
                    </mxGeometry>
                </mxCell>
                <mxCell id="116" value="«parameter»&lt;br&gt;&lt;b&gt;humid&lt;/b&gt;" style="html=1;dropTarget=0;verticalAlign=top;sketch=0;" parent="42" vertex="1">
                    <mxGeometry x="70" y="320" width="160" height="50" as="geometry"/>
                </mxCell>
                <mxCell id="117" value="«group»&lt;br&gt;&lt;b&gt;calibration&lt;/b&gt;" style="html=1;dropTarget=0;verticalAlign=top;sketch=0;fillColor=#dae8fc;strokeColor=#6c8ebf;" parent="42" vertex="1">
                    <mxGeometry x="30" y="380" width="160" height="50" as="geometry"/>
                </mxCell>
                <mxCell id="118" value="«parameter»&lt;br&gt;&lt;b&gt;temp&lt;/b&gt;" style="html=1;dropTarget=0;verticalAlign=top;sketch=0;" parent="42" vertex="1">
                    <mxGeometry x="70" y="440" width="160" height="50" as="geometry"/>
                </mxCell>
                <mxCell id="119" value="«parameter»&lt;br&gt;&lt;b&gt;press&lt;/b&gt;" style="html=1;dropTarget=0;verticalAlign=top;sketch=0;" parent="42" vertex="1">
                    <mxGeometry x="70" y="500" width="160" height="50" as="geometry"/>
                </mxCell>
                <mxCell id="120" value="«parameter»&lt;br&gt;&lt;b&gt;humid&lt;/b&gt;" style="html=1;dropTarget=0;verticalAlign=top;sketch=0;" parent="42" vertex="1">
                    <mxGeometry x="70" y="560" width="160" height="50" as="geometry"/>
                </mxCell>
                <mxCell id="44" value="" style="swimlane;startSize=0;fillColor=#f8cecc;strokeColor=#b85450;sketch=1;" parent="1" vertex="1">
                    <mxGeometry x="60" y="-710" width="220" height="640" as="geometry">
                        <mxRectangle x="60" y="-710" width="50" height="40" as="alternateBounds"/>
                    </mxGeometry>
                </mxCell>
                <mxCell id="121" value="&lt;br&gt;«schema»&lt;br&gt;&lt;b&gt;Temp Press Humid Sensor&lt;/b&gt;" style="html=1;dropTarget=0;verticalAlign=top;fillColor=#dae8fc;strokeColor=#6c8ebf;sketch=0;" parent="44" vertex="1">
                    <mxGeometry x="20" y="20" width="180" height="480" as="geometry"/>
                </mxCell>
                <mxCell id="122" value="" style="shape=module;jettyWidth=8;jettyHeight=4;sketch=0;" parent="121" vertex="1">
                    <mxGeometry x="1" width="20" height="20" relative="1" as="geometry">
                        <mxPoint x="-27" y="7" as="offset"/>
                    </mxGeometry>
                </mxCell>
                <mxCell id="123" value="«parameter»&lt;br&gt;&lt;b&gt;last_reading&lt;/b&gt;" style="html=1;dropTarget=0;verticalAlign=top;sketch=0;" parent="44" vertex="1">
                    <mxGeometry x="30" y="80" width="160" height="50" as="geometry"/>
                </mxCell>
                <mxCell id="125" value="«parameter»&lt;br&gt;&lt;b&gt;oversample_temp&lt;/b&gt;" style="html=1;dropTarget=0;verticalAlign=top;sketch=0;" parent="44" vertex="1">
                    <mxGeometry x="30" y="140" width="160" height="50" as="geometry"/>
                </mxCell>
                <mxCell id="126" value="«parameter»&lt;br&gt;&lt;b&gt;oversample_press&lt;/b&gt;" style="html=1;dropTarget=0;verticalAlign=top;sketch=0;" parent="44" vertex="1">
                    <mxGeometry x="30" y="200" width="160" height="50" as="geometry"/>
                </mxCell>
                <mxCell id="129" value="«parameter»&lt;br&gt;&lt;b&gt;oversample_humid&lt;/b&gt;" style="html=1;dropTarget=0;verticalAlign=top;sketch=0;" parent="44" vertex="1">
                    <mxGeometry x="30" y="260" width="160" height="50" as="geometry"/>
                </mxCell>
                <mxCell id="131" value="«parameter»&lt;br&gt;&lt;b&gt;calibration_temp&lt;/b&gt;" style="html=1;dropTarget=0;verticalAlign=top;sketch=0;" parent="44" vertex="1">
                    <mxGeometry x="30" y="320" width="160" height="50" as="geometry"/>
                </mxCell>
                <mxCell id="132" value="«parameter»&lt;br&gt;&lt;b&gt;calibration_press&lt;/b&gt;" style="html=1;dropTarget=0;verticalAlign=top;sketch=0;" parent="44" vertex="1">
                    <mxGeometry x="30" y="380" width="160" height="50" as="geometry"/>
                </mxCell>
                <mxCell id="133" value="«parameter»&lt;br&gt;&lt;b&gt;calibration_humid&lt;/b&gt;" style="html=1;dropTarget=0;verticalAlign=top;sketch=0;" parent="44" vertex="1">
                    <mxGeometry x="30" y="440" width="160" height="50" as="geometry"/>
                </mxCell>
                <mxCell id="46" value="Flat schema structure" style="text;html=1;align=left;verticalAlign=middle;resizable=0;points=[];autosize=1;strokeColor=none;fillColor=none;sketch=0;" parent="1" vertex="1">
                    <mxGeometry x="60" y="-730" width="130" height="20" as="geometry"/>
                </mxCell>
                <mxCell id="47" value="Nested schema structure" style="text;html=1;align=left;verticalAlign=middle;resizable=0;points=[];autosize=1;strokeColor=none;fillColor=none;sketch=0;" parent="1" vertex="1">
                    <mxGeometry x="320" y="-730" width="150" height="20" as="geometry"/>
                </mxCell>
            </root>
        </mxGraphModel>
    </diagram>
</mxfile>